<svg viewBox="130 130 252 252" fill="none" xmlns="http://www.w3.org/2000/svg">
  <rect x="137" y="137" width="238" height="238" rx="39" fill="#0A0A0A" stroke="#2A2A2A" stroke-width="2"/>
  <path d="M223.909 290H200.743V221.636H224.376C231.164 221.636 236.994 223.005 241.868 225.742C246.764 228.457 250.525 232.363 253.151 237.459C255.777 242.555 257.089 248.652 257.089 255.751C257.089 262.873 255.765 268.992 253.117 274.111C250.491 279.229 246.697 283.157 241.734 285.894C236.794 288.631 230.852 290 223.909 290ZM213.127 279.285H223.308C228.071 279.285 232.043 278.417 235.225 276.681C238.407 274.923 240.8 272.308 242.402 268.837C244.004 265.343 244.805 260.981 244.805 255.751C244.805 250.522 244.004 246.182 242.402 242.733C240.8 239.261 238.43 236.669 235.292 234.955C232.176 233.219 228.304 232.352 223.675 232.352H213.127V279.285Z" fill="white"/>
  <path d="M261.948 290V282.289L296.997 232.018H261.747V221.636H312.353V229.347L277.336 279.619H312.553V290H261.948Z" fill="#B0B0B0"/>
</svg>
