<svg width="512" height="512" viewBox="130 130 252 252" fill="none" xmlns="http://www.w3.org/2000/svg">
<rect x="137" y="137" width="238" height="238" rx="39" fill="#0A0A0A" stroke="#2A2A2A" stroke-width="2"/>
<mask id="path-2-outside-1_0_1" maskUnits="userSpaceOnUse" x="199" y="220" width="115" height="71" fill="black">
<rect fill="white" x="199" y="220" width="115" height="71"/>
<path d="M223.909 290H200.743V221.636H224.376C231.164 221.636 236.994 223.005 241.868 225.742C246.764 228.457 250.525 232.363 253.151 237.459C255.777 242.555 257.089 248.652 257.089 255.751C257.089 262.873 255.765 268.992 253.117 274.111C250.491 279.229 246.697 283.157 241.734 285.894C236.794 288.631 230.852 290 223.909 290ZM213.127 279.285H223.308C228.071 279.285 232.043 278.417 235.225 276.681C238.407 274.923 240.8 272.308 242.402 268.837C244.004 265.343 244.805 260.981 244.805 255.751C244.805 250.522 244.004 246.182 242.402 242.733C240.8 239.261 238.43 236.669 235.292 234.955C232.176 233.219 228.304 232.352 223.675 232.352H213.127V279.285Z"/>
<path d="M261.948 290V282.289L296.997 232.018H261.747V221.636H312.353V229.347L277.336 279.619H312.553V290H261.948Z"/>
</mask>
<path d="M223.909 290H200.743V221.636H224.376C231.164 221.636 236.994 223.005 241.868 225.742C246.764 228.457 250.525 232.363 253.151 237.459C255.777 242.555 257.089 248.652 257.089 255.751C257.089 262.873 255.765 268.992 253.117 274.111C250.491 279.229 246.697 283.157 241.734 285.894C236.794 288.631 230.852 290 223.909 290ZM213.127 279.285H223.308C228.071 279.285 232.043 278.417 235.225 276.681C238.407 274.923 240.8 272.308 242.402 268.837C244.004 265.343 244.805 260.981 244.805 255.751C244.805 250.522 244.004 246.182 242.402 242.733C240.8 239.261 238.43 236.669 235.292 234.955C232.176 233.219 228.304 232.352 223.675 232.352H213.127V279.285Z" fill="url(#paint0_linear_0_1)"/>
<path d="M261.948 290V282.289L296.997 232.018H261.747V221.636H312.353V229.347L277.336 279.619H312.553V290H261.948Z" fill="url(#paint1_linear_0_1)"/>
<path d="M200.743 290H199.743V291H200.743V290ZM200.743 221.636V220.636H199.743V221.636H200.743ZM241.868 225.742L241.378 226.614L241.383 226.617L241.868 225.742ZM253.151 237.459L252.262 237.917V237.917L253.151 237.459ZM253.117 274.111L252.229 273.651L252.227 273.654L253.117 274.111ZM241.734 285.894L241.251 285.019L241.25 285.019L241.734 285.894ZM213.127 279.285H212.127V280.285H213.127V279.285ZM235.225 276.681L235.704 277.559L235.709 277.556L235.225 276.681ZM242.402 268.837L243.31 269.256L243.311 269.254L242.402 268.837ZM242.402 242.733L241.494 243.152L241.495 243.154L242.402 242.733ZM235.292 234.955L234.805 235.829L234.813 235.833L235.292 234.955ZM213.127 232.352V231.352H212.127V232.352H213.127ZM223.909 290V289H200.743V290V291H223.909V290ZM200.743 290H201.743V221.636H200.743H199.743V290H200.743ZM200.743 221.636V222.636H224.376V221.636V220.636H200.743V221.636ZM224.376 221.636V222.636C231.029 222.636 236.683 223.977 241.378 226.614L241.868 225.742L242.358 224.87C237.306 222.033 231.299 220.636 224.376 220.636V221.636ZM241.868 225.742L241.383 226.617C246.102 229.233 249.724 232.992 252.262 237.917L253.151 237.459L254.039 237.001C251.325 231.733 247.426 227.681 242.353 224.868L241.868 225.742ZM253.151 237.459L252.262 237.917C254.799 242.842 256.089 248.775 256.089 255.751H257.089H258.089C258.089 248.53 256.754 242.268 254.039 237.001L253.151 237.459ZM257.089 255.751H256.089C256.089 262.75 254.788 268.705 252.229 273.651L253.117 274.111L254.005 274.57C256.742 269.28 258.089 262.995 258.089 255.751H257.089ZM253.117 274.111L252.227 273.654C249.691 278.598 246.037 282.379 241.251 285.019L241.734 285.894L242.217 286.77C247.357 283.935 251.292 279.86 254.007 274.567L253.117 274.111ZM241.734 285.894L241.25 285.019C236.488 287.658 230.721 289 223.909 289V290V291C230.983 291 237.1 289.605 242.219 286.769L241.734 285.894ZM213.127 279.285V280.285H223.308V279.285V278.285H213.127V279.285ZM223.308 279.285V280.285C228.187 280.285 232.336 279.396 235.704 277.559L235.225 276.681L234.746 275.803C231.75 277.438 227.954 278.285 223.308 278.285V279.285ZM235.225 276.681L235.709 277.556C239.087 275.69 241.623 272.91 243.31 269.256L242.402 268.837L241.494 268.418C239.976 271.706 237.727 274.156 234.742 275.806L235.225 276.681ZM242.402 268.837L243.311 269.254C244.991 265.591 245.805 261.076 245.805 255.751H244.805H243.805C243.805 260.886 243.018 265.095 241.493 268.42L242.402 268.837ZM244.805 255.751H245.805C245.805 250.428 244.991 245.933 243.309 242.312L242.402 242.733L241.495 243.154C243.018 246.432 243.805 250.616 243.805 255.751H244.805ZM242.402 242.733L243.31 242.314C241.624 238.662 239.111 235.901 235.771 234.078L235.292 234.955L234.813 235.833C237.749 237.436 239.975 239.861 241.494 243.152L242.402 242.733ZM235.292 234.955L235.779 234.082C232.476 232.242 228.425 231.352 223.675 231.352V232.352V233.352C228.183 233.352 231.876 234.197 234.805 235.829L235.292 234.955ZM223.675 232.352V231.352H213.127V232.352V233.352H223.675V232.352ZM213.127 232.352H212.127V279.285H213.127H214.127V232.352H213.127ZM261.948 290H260.948V291H261.948V290ZM261.948 282.289L261.127 281.717L260.948 281.975V282.289H261.948ZM296.997 232.018L297.818 232.59L298.914 231.018H296.997V232.018ZM261.747 232.018H260.747V233.018H261.747V232.018ZM261.747 221.636V220.636H260.747V221.636H261.747ZM312.353 221.636H313.353V220.636H312.353V221.636ZM312.353 229.347L313.173 229.919L313.353 229.661V229.347H312.353ZM277.336 279.619L276.516 279.047L275.421 280.619H277.336V279.619ZM312.553 279.619H313.553V278.619H312.553V279.619ZM312.553 290V291H313.553V290H312.553ZM261.948 290H262.948V282.289H261.948H260.948V290H261.948ZM261.948 282.289L262.768 282.861L297.818 232.59L296.997 232.018L296.177 231.446L261.127 281.717L261.948 282.289ZM296.997 232.018V231.018H261.747V232.018V233.018H296.997V232.018ZM261.747 232.018H262.747V221.636H261.747H260.747V232.018H261.747ZM261.747 221.636V222.636H312.353V221.636V220.636H261.747V221.636ZM312.353 221.636H311.353V229.347H312.353H313.353V221.636H312.353ZM312.353 229.347L311.532 228.776L276.516 279.047L277.336 279.619L278.157 280.19L313.173 229.919L312.353 229.347ZM277.336 279.619V280.619H312.553V279.619V278.619H277.336V279.619ZM312.553 279.619H311.553V290H312.553H313.553V279.619H312.553ZM312.553 290V289H261.948V290V291H312.553V290Z" fill="black" mask="url(#path-2-outside-1_0_1)"/>
<defs>
<linearGradient id="paint0_linear_0_1" x1="256" y1="199" x2="256" y2="313" gradientUnits="userSpaceOnUse">
<stop offset="1" stop-color="white"/>
</linearGradient>
<linearGradient id="paint1_linear_0_1" x1="256" y1="199" x2="256" y2="313" gradientUnits="userSpaceOnUse">
<stop offset="1" stop-color="#B0B0B0"/>
</linearGradient>
</defs>
</svg>
